# xmcd
# 
# Track frame offsets:
#     150
#     17882
#     37160
# 
# Disc length: 730
# 
# Revision: 12
# Processed by: cddbd v1.5.2PL0 Copyright (c) Steve Scherf et al.
# Submitted via: fre:ac v1.1beta1pre5
# 
DISCID=2102d803
DTITLE=Eric Clapton - Change The World (Single)
DYEAR=1996
DGENRE=Blues
TTITLE0=Change The World
TTITLE1=Danny Boy
TTITLE2=Change The World (Instrumental)
EXTD=YEAR: 1996\nComposer: Gordon Kenney
EXTT0=
EXTT1=
EXTT2=
PLAYORDER=
